<?xml version="1.0" standalone="no"?>
<!DOCTYPE svg PUBLIC "-//W3C//DTD SVG 20010904//EN"
 "http://www.w3.org/TR/2001/REC-SVG-20010904/DTD/svg10.dtd">
<svg version="1.0" xmlns="http://www.w3.org/2000/svg"
 width="300.000000pt" height="300.000000pt" viewBox="0 0 300.000000 300.000000"
 preserveAspectRatio="xMidYMid meet">
<metadata>
Created by potrace 1.14, written by Peter Selinger 2001-2017
</metadata>
<g transform="translate(0.000000,300.000000) scale(0.100000,-0.100000)"
fill="#000000" stroke="none">
<path d="M895 2957 c-23 -23 -118 -116 -212 -206 l-172 -163 1 -556 0 -556
187 -186 187 -186 69 1 c65 2 114 -9 101 -22 -3 -3 -1 -14 4 -23 7 -13 21 -18
51 -16 32 1 37 -1 23 -9 -10 -5 -28 -20 -41 -33 -24 -22 -27 -22 -303 -22
l-279 0 0 -284 0 -284 162 -155 c89 -85 186 -178 215 -206 l53 -51 567 0 567
1 213 207 213 207 -1 530 0 530 -188 188 -187 187 -161 0 -161 0 -41 29 c-57
42 -63 55 -21 48 19 -4 59 -9 89 -13 30 -3 58 -8 62 -11 11 -6 50 36 43 47 -8
13 -22 13 270 15 143 2 267 3 276 4 14 1 16 35 16 311 l0 310 -200 192 c-110
106 -206 199 -213 206 -10 9 -140 12 -581 12 l-568 0 -40 -43z"/>
</g>
</svg>
